<svg xmlns="http://www.w3.org/2000/svg" version="1.1" xmlns:xlink="http://www.w3.org/1999/xlink" xmlns:svgjs="http://svgjs.dev/svgjs" width="2000" height="1999" viewBox="0 0 2000 1999"><g transform="matrix(1,0,0,1,-0.431486880466764,-0.4312711370263287)"><svg viewBox="0 0 343 343" data-background-color="#ffffff" preserveAspectRatio="xMidYMid meet" height="1999" width="2000" xmlns="http://www.w3.org/2000/svg" xmlns:xlink="http://www.w3.org/1999/xlink"><g id="tight-bounds" transform="matrix(1,0,0,1,0.0740000000000407,0.07400000000001228)"><svg viewBox="0 0 342.85155851775386 342.85155851775386" height="342.85155851775386" width="342.85155851775386"><g><svg></svg></g><g><svg viewBox="0 0 342.85155851775386 342.85155851775386" height="342.85155851775386" width="342.85155851775386"><g><path d="M0 171.426c0-94.676 76.75-171.426 171.426-171.426 94.676 0 171.426 76.75 171.426 171.426 0 94.676-76.75 171.426-171.426 171.426-94.676 0-171.426-76.75-171.426-171.426zM171.426 327.62c86.263 0 156.194-69.93 156.194-156.194 0-86.263-69.93-156.194-156.194-156.194-86.263 0-156.194 69.93-156.194 156.194 0 86.263 69.93 156.194 156.194 156.194z" data-fill-palette-color="tertiary" fill="#100c25" stroke="transparent"></path><ellipse rx="164.56874808852186" ry="164.56874808852186" cx="171.42577925887693" cy="171.42577925887693" fill="#100c25" stroke="transparent" stroke-width="0" fill-opacity="1" data-fill-palette-color="tertiary"></ellipse></g><g transform="matrix(1,0,0,1,64.84655864529837,86.9733316205087)"><svg viewBox="0 0 213.1584412271571 168.90489527673645" height="168.90489527673645" width="213.1584412271571"><g><svg viewBox="0 0 213.1584412271571 168.90489527673645" height="168.90489527673645" width="213.1584412271571"><g><svg viewBox="0 0 213.1584412271571 168.90489527673645" height="168.90489527673645" width="213.1584412271571"><g><svg viewBox="0 0 213.1584412271571 168.90489527673645" height="168.90489527673645" width="213.1584412271571"><g id="textblocktransform"><svg viewBox="0 0 213.1584412271571 168.90489527673645" height="168.90489527673645" width="213.1584412271571" id="textblock"><g><svg viewBox="0 0 213.1584412271571 168.90489527673645" height="168.90489527673645" width="213.1584412271571"><g transform="matrix(1,0,0,1,0,0)"><svg width="213.1584412271571" viewBox="2 -36 46 36.45" height="168.90489527673645" data-palette-color="#8b5df6"><path d="M15.9-9.05L15.9-1.45Q15.9-0.8 12.85-0.4 9.8 0 6.75 0 3.7 0 2.85-0.35 2-0.7 2-1.45L2-1.45 2-33.6Q2-36 16.4-36L16.4-36Q25.1-36 27.9-34.8L27.9-34.8Q31.3-33.4 32.5-31L32.5-31Q34.1-27.9 34.1-23.05L34.1-23.05Q34.1-16.4 31.8-13.4L31.8-13.4Q30.15-11.2 28.5-10.55 26.85-9.9 25.78-9.63 24.7-9.35 23.1-9.2L23.1-9.2Q20.9-9 17.1-9L17.1-9 15.9-9.05ZM15.95-27.6L15.95-17.35 17.15-17.35Q18.1-17.35 18.65-17.63 19.2-17.9 19.63-19.13 20.05-20.35 20.05-22.58 20.05-24.8 19.58-25.98 19.1-27.15 18.63-27.38 18.15-27.6 17.5-27.6L17.5-27.6 15.95-27.6ZM48-4.7Q48-1.75 46.65-0.65 45.3 0.45 42.67 0.45 40.05 0.45 38.7-0.65 37.35-1.75 37.35-4.7 37.35-7.65 38.72-8.63 40.1-9.6 42.7-9.6 45.3-9.6 46.65-8.63 48-7.65 48-4.7Z" opacity="1" transform="matrix(1,0,0,1,0,0)" fill="#8b5df6" class="wordmark-text-0" data-fill-palette-color="quaternary" id="text-0"></path></svg></g></svg></g></svg></g></svg></g></svg></g></svg></g></svg></g></svg></g><defs></defs></svg><rect width="342.85155851775386" height="342.85155851775386" fill="none" stroke="none" visibility="hidden"></rect></g></svg></g></svg>